<?xml version="1.0" encoding="UTF-8"?>
<svg width="492px" height="219px" viewBox="0 0 492 219" version="1.1" xmlns="http://www.w3.org/2000/svg" xmlns:xlink="http://www.w3.org/1999/xlink">
    <!-- Generator: Sketch 47 (45396) - http://www.bohemiancoding.com/sketch -->
    <title>Homepage logo</title>
    <desc>Created with Sketch.</desc>
    <defs></defs>
    <g id="Page-1" stroke="none" stroke-width="1" fill="none" fill-rule="evenodd">
        <g id="Homepage-logo">
            <path d="M47.672,213 C41.7946373,213 38.1466738,209.96003 36.728,203.88 L0.856,9.016 L0.552,6.584 C0.552,4.75999088 1.15999392,3.24000608 2.376,2.024 C3.59200608,0.80799392 5.11199088,0.2 6.936,0.2 L34.296,0.2 C36.9306798,0.2 38.8559939,0.65599544 40.072,1.568 C41.2880061,2.48000456 42.0986646,4.05065552 42.504,6.28 L67.736,143.08 L94.792,54.92 C96.8186768,49.853308 100.162643,47.32 104.824,47.32 L121.544,47.32 C124.17868,47.32 126.306659,48.0799924 127.928,49.6 C129.549341,51.1200076 130.663997,52.8933232 131.272,54.92 L158.632,143.08 L183.56,6.28 C184.168003,2.2266464 187.005308,0.2 192.072,0.2 L219.432,0.2 C221.053341,0.2 222.471994,0.80799392 223.688,2.024 C224.904006,3.24000608 225.512,4.75999088 225.512,6.584 C225.512,7.5973384 225.410668,8.40799696 225.208,9.016 L189.336,203.88 C188.930665,206.717348 187.765343,208.946659 185.84,210.568 C183.914657,212.189341 181.432015,213 178.392,213 L157.72,213 C154.882652,213 152.552009,212.240008 150.728,210.72 C148.903991,209.199992 147.688003,207.426677 147.08,205.4 L113.032,104.472 L78.984,205.4 C77.3626586,210.466692 73.8160274,213 68.344,213 L47.672,213 Z M315.8,216.04 C297.154573,216.04 282.461387,209.960061 271.72,197.8 C260.978613,185.639939 255.608,168.920106 255.608,147.64 L255.608,62.216 C255.608,59.9866555 256.317326,58.2133399 257.736,56.896 C259.154674,55.5786601 260.877323,54.92 262.904,54.92 L290.264,54.92 C292.290677,54.92 294.013326,55.6293262 295.432,57.048 C296.850674,58.4666738 297.56,60.1893232 297.56,62.216 L297.56,145.816 C297.56,170.744125 308.402558,183.208 330.088,183.208 C340.626719,183.208 348.986636,179.864033 355.168,173.176 C361.349364,166.487967 364.44,157.368058 364.44,145.816 L364.44,62.216 C364.44,59.9866555 365.149326,58.2133399 366.568,56.896 C367.986674,55.5786601 369.709323,54.92 371.736,54.92 L398.792,54.92 C401.021344,54.92 402.79466,55.5786601 404.112,56.896 C405.42934,58.2133399 406.088,59.9866555 406.088,62.216 L406.088,205.704 C406.088,207.730677 405.42934,209.453326 404.112,210.872 C402.79466,212.290674 401.021344,213 398.792,213 L373.56,213 C371.533323,213 369.810674,212.290674 368.392,210.872 C366.973326,209.453326 366.264,207.730677 366.264,205.704 L366.264,193.24 C355.117278,208.440076 338.296112,216.04 315.8,216.04 Z" id="Wu." fill="#000000"></path>
            <path d="M439.152,192 C439.152,184.66663 441.735308,178.416693 446.902,173.25 C452.068693,168.083307 458.31863,165.5 465.652,165.5 C472.98537,165.5 479.235308,168.083307 484.402,173.25 C489.568693,178.416693 492.152,184.66663 492.152,192 C492.152,199.33337 489.568693,205.583307 484.402,210.75 C479.235308,215.916693 472.98537,218.5 465.652,218.5 C458.31863,218.5 452.068693,215.916693 446.902,210.75 C441.735308,205.583307 439.152,199.33337 439.152,192 Z" id="Path" fill="#F31919"></path>
        </g>
    </g>
</svg>